<svg width="15" height="15" viewBox="0 0 15 15" fill="none" xmlns="http://www.w3.org/2000/svg">
<path fill-rule="evenodd" clip-rule="evenodd" d="M4.21875 1.875C3.70098 1.875 3.28125 2.29473 3.28125 2.8125V12.1875C3.28125 12.7053 3.70098 13.125 4.21875 13.125H10.7812C11.299 13.125 11.7188 12.7053 11.7188 12.1875V2.8125C11.7188 2.29473 11.299 1.875 10.7812 1.875H4.21875ZM2.34375 2.8125C2.34375 1.77697 3.18322 0.9375 4.21875 0.9375H10.7812C11.8168 0.9375 12.6562 1.77697 12.6562 2.8125V12.1875C12.6562 13.223 11.8168 14.0625 10.7812 14.0625H4.21875C3.18322 14.0625 2.34375 13.223 2.34375 12.1875V2.8125Z" fill="#959595"/>
<path fill-rule="evenodd" clip-rule="evenodd" d="M4.6875 3.75C4.6875 3.49112 4.89737 3.28125 5.15625 3.28125H9.84375C10.1026 3.28125 10.3125 3.49112 10.3125 3.75C10.3125 4.00888 10.1026 4.21875 9.84375 4.21875H5.15625C4.89737 4.21875 4.6875 4.00888 4.6875 3.75Z" fill="#959595"/>
<path fill-rule="evenodd" clip-rule="evenodd" d="M4.6875 6.09375C4.6875 5.83487 4.89737 5.625 5.15625 5.625H9.84375C10.1026 5.625 10.3125 5.83487 10.3125 6.09375C10.3125 6.35263 10.1026 6.5625 9.84375 6.5625H5.15625C4.89737 6.5625 4.6875 6.35263 4.6875 6.09375Z" fill="#959595"/>
<path fill-rule="evenodd" clip-rule="evenodd" d="M4.6875 8.4375C4.6875 8.17862 4.89737 7.96875 5.15625 7.96875H7.5C7.75888 7.96875 7.96875 8.17862 7.96875 8.4375C7.96875 8.69638 7.75888 8.90625 7.5 8.90625H5.15625C4.89737 8.90625 4.6875 8.69638 4.6875 8.4375Z" fill="#959595"/>
</svg>
