<svg width="8" height="12" viewBox="0 0 8 12" fill="none" xmlns="http://www.w3.org/2000/svg">
<path d="M0.325955 0.306143C0.222629 0.402556 0.140654 0.517076 0.0847218 0.643147C0.0287901 0.769219 0 0.904367 0 1.04086C0 1.17734 0.0287901 1.31249 0.0847218 1.43856C0.140654 1.56463 0.222629 1.67915 0.325955 1.77557L4.65056 5.81909L0.325955 9.86261C0.117552 10.0575 0.000471952 10.3218 0.000471952 10.5973C0.000471952 10.8729 0.117552 11.1372 0.325955 11.332C0.534359 11.5269 0.817014 11.6364 1.11174 11.6364C1.40647 11.6364 1.68912 11.5269 1.89753 11.332L7.0135 6.54859C7.11682 6.45218 7.1988 6.33766 7.25473 6.21159C7.31066 6.08552 7.33945 5.95037 7.33945 5.81388C7.33945 5.67739 7.31066 5.54224 7.25473 5.41617C7.1988 5.2901 7.11682 5.17558 7.0135 5.07917L1.89753 0.295721C1.47398 -0.100294 0.760646 -0.100294 0.325955 0.306143Z" fill="#959595" fill-opacity="0.73"/>
</svg>
