<svg width="8" height="12" viewBox="0 0 8 12" fill="none" xmlns="http://www.w3.org/2000/svg">
<path d="M7.01349 0.306143C7.11682 0.402556 7.19879 0.517075 7.25473 0.643147C7.31066 0.769219 7.33945 0.904367 7.33945 1.04086C7.33945 1.17734 7.31066 1.31249 7.25473 1.43856C7.19879 1.56463 7.11682 1.67915 7.01349 1.77557L2.68888 5.81909L7.01349 9.86261C7.2219 10.0575 7.33898 10.3218 7.33898 10.5973C7.33898 10.8729 7.2219 11.1372 7.01349 11.332C6.80509 11.5269 6.52243 11.6364 6.22771 11.6364C5.93298 11.6364 5.65032 11.5269 5.44192 11.332L0.325952 6.54859C0.222626 6.45218 0.14065 6.33766 0.0847187 6.21159C0.0287867 6.08552 -2.38419e-06 5.95037 -2.38419e-06 5.81388C-2.38419e-06 5.67739 0.0287867 5.54224 0.0847187 5.41617C0.14065 5.2901 0.222626 5.17558 0.325952 5.07917L5.44192 0.295721C5.86546 -0.100294 6.5788 -0.100294 7.01349 0.306143Z" fill="#959595" fill-opacity="0.73"/>
</svg>
