<svg width="45" height="44" viewBox="0 0 45 44" fill="none" xmlns="http://www.w3.org/2000/svg">
<path d="M39.8036 36.0326C42.1133 33.3176 43.7197 30.0991 44.487 26.6493C45.2542 23.1995 45.1597 19.6199 44.2114 16.2133C43.2632 12.8068 41.489 9.67345 39.0391 7.07843C36.5892 4.48341 33.5356 2.50304 30.1366 1.30484C26.7376 0.106644 23.0932 -0.274128 19.5117 0.194736C15.9303 0.6636 12.517 1.96831 9.56084 3.99849C6.60464 6.02867 4.19241 8.72459 2.52822 11.8582C0.864035 14.9918 -0.00315642 18.4709 8.63274e-06 22.0012C0.00122317 27.1332 1.85235 32.1009 5.22856 36.0326L5.1964 36.0593C5.30898 36.1913 5.43764 36.3044 5.55344 36.4348C5.69819 36.5967 5.85419 36.7491 6.00376 36.9062C6.45408 37.3839 6.91727 37.8427 7.40297 38.2732C7.55094 38.4052 7.70373 38.5277 7.8533 38.6534C8.36795 39.0871 8.89708 39.4988 9.44551 39.8822C9.51627 39.9293 9.5806 39.9906 9.65137 40.0393V40.0204C13.4182 42.6101 17.9117 44 22.5177 44C27.1237 44 31.6172 42.6101 35.384 40.0204V40.0393C35.4548 39.9906 35.5175 39.9293 35.5899 39.8822C36.1367 39.4972 36.6674 39.0871 37.1821 38.6534C37.3317 38.5277 37.4845 38.4036 37.6324 38.2732C38.1181 37.8411 38.5813 37.3839 39.0316 36.9062C39.1812 36.7491 39.3356 36.5967 39.482 36.4348C39.5961 36.3044 39.7264 36.1913 39.839 36.0577L39.8036 36.0326ZM22.5161 9.43111C23.9475 9.43111 25.3468 9.8458 26.5369 10.6227C27.7271 11.3997 28.6547 12.504 29.2025 13.796C29.7503 15.088 29.8936 16.5096 29.6143 17.8812C29.3351 19.2528 28.6458 20.5127 27.6336 21.5015C26.6215 22.4904 25.3319 23.1638 23.928 23.4366C22.5241 23.7094 21.0689 23.5694 19.7465 23.0342C18.424 22.4991 17.2937 21.5928 16.4985 20.4301C15.7032 19.2673 15.2788 17.9002 15.2788 16.5018C15.2788 14.6265 16.0413 12.8281 17.3985 11.5021C18.7558 10.1761 20.5966 9.43111 22.5161 9.43111ZM9.66102 36.0326C9.68892 33.9695 10.5471 32 12.0499 30.5503C13.5527 29.1007 15.5793 28.2873 17.6912 28.2863H27.341C29.4529 28.2873 31.4795 29.1007 32.9823 30.5503C34.4851 32 35.3433 33.9695 35.3712 36.0326C31.8439 39.1379 27.2642 40.8565 22.5161 40.8565C17.768 40.8565 13.1883 39.1379 9.66102 36.0326Z" fill="#E4E4E4"/>
</svg>
